<?xml version="1.0" encoding="UTF-8"?>
<svg xmlns="http://www.w3.org/2000/svg" version="1.1" viewBox="0 0 693.6 209.1">
  <defs>
    <style>
      .cls-1 {
        fill: #10181f;
      }

      .cls-2 {
        fill: #ad2b43;
      }

      @media (prefers-color-scheme: dark) {
        .cls-1 {
          fill: #efefef;
        }
        .cls-2 {
          fill: #ad2b43;
        }
      }
    </style>
  </defs>
  <!-- Generator: Adobe Illustrator 28.6.0, SVG Export Plug-In . SVG Version: 1.2.0 Build 709)  -->
  <g>
    <g id="Layer_2">
      <g>
        <path class="cls-2" d="M96.8,86.5c0-1.4.7-2.6,1.8-3.3-1.1.7-1.8,1.9-1.8,3.3v8.4h0v-8.4Z"/>
        <path class="cls-2" d="M88,85.4c0,.1,0,.2,0,.3,0-.1,0-.2,0-.3Z"/>
        <path class="cls-2" d="M86.5,114.8c-.4.3-.8.5-1.2.6.4-.1.8-.3,1.2-.6Z"/>
        <path class="cls-2" d="M100.8,115.6h25.2c.6,0,1.2-.2,1.7-.4-.5.3-1.1.4-1.7.4h-25.2Z"/>
        <path class="cls-2" d="M129.9,86.5v8.4h0v-8.4c0-1.9-1.4-3.5-3.2-3.9,1.8.4,3.2,2,3.2,3.9Z"/>
        <path class="cls-2" d="M126.7,82.6c-.3,0-.5,0-.8,0h-8.4s8.4,0,8.4,0c.3,0,.5,0,.8,0Z"/>
        <path class="cls-2" d="M100.8,40.7h0c-.3,0-.5,0-.8,0,.3,0,.5,0,.8,0h0Z"/>
        <path class="cls-2" d="M88.1,69.7c0,2.2-1.8,4-4,4h0,0c2.2,0,4-1.8,4-4v-8.3h0v8.3Z"/>
        <path class="cls-2" d="M96.8,44.7c0-1.9,1.4-3.5,3.2-3.9-1.8.4-3.2,2-3.2,3.9v8.4h0v-8.4Z"/>
        <path class="cls-2" d="M87,41.8c-.7-.7-1.7-1.2-2.8-1.2h-16.8s16.8,0,16.8,0c1.1,0,2.1.4,2.8,1.2Z"/>
        <path class="cls-2" d="M56.2,83.7c.2-.2.5-.4.8-.6-.3.2-.6.4-.8.6Z"/>
        <path class="cls-2" d="M138.6,128.2c0-1.6,1-3.1,2.4-3.7-1.4.6-2.4,2-2.4,3.7v8.4h0v-8.4Z"/>
        <path class="cls-2" d="M83.9,124.3h-25.2c-.4,0-.8,0-1.2.2.4-.1.8-.2,1.2-.2h25.2Z"/>
        <path class="cls-2" d="M58.7,157.4c-.3,0-.5,0-.8,0,.3,0,.5,0,.8,0h25.2c.5,0,1.1-.1,1.5-.3-.5.2-1,.3-1.5.3h-25.2Z"/>
        <path class="cls-2" d="M97,154.7c0-.2-.1-.4-.2-.6,0,.2,0,.4.2.6Z"/>
        <path class="cls-2" d="M57.9,157.3c-.8-.2-1.5-.5-2-1.1.5.5,1.2.9,2,1.1Z"/>
        <path class="cls-2" d="M86.4,156.5c-.3.2-.6.4-.9.6.3-.1.7-.4.9-.6Z"/>
        <path class="cls-2" d="M55.9,156.2c-.2-.2-.4-.5-.6-.7.2.3.3.5.6.7Z"/>
        <path class="cls-2" d="M98,125.4c.2-.2.4-.3.6-.5-.2.1-.4.3-.6.5Z"/>
        <path class="cls-2" d="M138.6,86.5c0-.4,0-.8.2-1.2-.1.4-.2.8-.2,1.2v8.4h0v-8.4Z"/>
        <path class="cls-2" d="M167.7,82.5h-25.2c-.7,0-1.3.2-1.9.5.6-.3,1.2-.5,1.9-.5h25.2Z"/>
        <path class="cls-2" d="M96.8,69.9v-8.4h0v8.4c0,2.2,1.8,4,4,4h16.8s-16.8,0-16.8,0c-2.2,0-4-1.8-4-4Z"/>
        <path class="cls-2" d="M170,156.6c-.4.3-.8.5-1.3.6.5-.1.9-.3,1.3-.6Z"/>
        <path class="cls-2" d="M97.1,155c.6,1.4,2,2.4,3.7,2.4h16.8s-16.8,0-16.8,0c-1.6,0-3.1-1-3.7-2.4Z"/>
        <path class="cls-2" d="M84.2,82.5c1.5,0,2.8.9,3.5,2.1-.7-1.3-2-2.1-3.5-2.1h-8.5s8.5,0,8.5,0Z"/>
        <path class="cls-2" d="M127.5,41c1.4.6,2.4,2,2.4,3.7v8.4h0v-8.4c0-1.6-1-3.1-2.4-3.7Z"/>
        <path class="cls-2" d="M138.6,69.9c0,.4,0,.9.2,1.3-.1-.4-.2-.8-.2-1.3h0Z"/>
        <path class="cls-2" d="M141,41c-.8.3-1.4.9-1.9,1.7.4-.7,1.1-1.3,1.9-1.7Z"/>
        <path class="cls-2" d="M138.6,44c0,0,0-.2,0-.3,0,0,0,.2,0,.3Z"/>
        <path class="cls-2" d="M138.9,71.4c.6,1.4,2,2.4,3.7,2.4h16.8s-16.8,0-16.8,0c-1.6,0-3.1-1-3.7-2.4Z"/>
        <path class="cls-2" d="M129.9,69.9c0,1-.4,1.9-.9,2.5.6-.7.9-1.6.9-2.5v-8.4h0v8.4Z"/>
        <path class="cls-2" d="M171.7,69.9v-8.4h-33.1v8.4c0,.4,0,.9.2,1.3,0,0,0,.2,0,.3.6,1.4,2,2.4,3.7,2.4h16.8s8.4,0,8.4,0c2.2,0,4-1.8,4-4Z"/>
        <path class="cls-2" d="M138.6,53.1h33.1v-8.4c0-2.2-1.8-4-4-4h-25.2c-.5,0-1.1.1-1.5.3-.8.3-1.4.9-1.9,1.7-.2.3-.3.6-.4,1,0,0,0,.2,0,.3,0,.2,0,.5,0,.7v8.4Z"/>
        <path class="cls-2" d="M138.9,71.4c0,0,0-.2,0-.3,0,0,0,.2,0,.3Z"/>
        <path class="cls-2" d="M138.6,44.7c0-.2,0-.5,0-.7,0,.2,0,.5,0,.7v8.4h0v-8.4Z"/>
        <path class="cls-2" d="M138.7,43.7c0-.4.2-.7.4-1-.2.3-.3.6-.4,1Z"/>
        <path class="cls-2" d="M59,73.7h8.4v-7.6c0-7.2,5.8-13,13-13h7.7v-8.6c0-1.1-.4-2.1-1.2-2.8-.7-.7-1.7-1.2-2.8-1.2h-16.8s-8.4,0-8.4,0c-1.4,0-2.6.7-3.3,1.8-.2.3-.3.6-.4.9-.2.4-.3.9-.3,1.4v25.2c0,.5.1,1.1.3,1.5.6,1.4,2,2.4,3.7,2.4Z"/>
        <path class="cls-2" d="M88.1,69.7v-8.3h-7.7c-2.6,0-4.7,2.1-4.7,4.7v7.6h8.4c2.2,0,4-1.8,4-4Z"/>
        <path class="cls-2" d="M55.3,43.2c.1-.3.2-.6.4-.9-.2.3-.3.6-.4.9Z"/>
        <path class="cls-2" d="M87,41.8c.7.7,1.2,1.7,1.2,2.8v8.6h0v-8.6c0-1.1-.4-2.1-1.2-2.8Z"/>
        <path class="cls-2" d="M59,40.6h8.4s-8.4,0-8.4,0c-1.4,0-2.6.7-3.3,1.8.7-1.1,1.9-1.8,3.3-1.8Z"/>
        <path class="cls-2" d="M171.7,128.2c0-2.2-1.8-4-4-4h-8.5v7.7c0,7.2-5.8,13-13,13h-7.7v8.4c0,2.2,1.8,4,4,4h25.2c.4,0,.7,0,1-.2.5-.1.9-.3,1.3-.6.3-.2.5-.5.8-.7.6-.7.9-1.5.9-2.5v-25.2Z"/>
        <path class="cls-2" d="M138.6,128.2v8.4h7.7c2.6,0,4.7-2.1,4.7-4.7v-7.7h-8.4c-.5,0-1.1.1-1.5.3-1.4.6-2.4,2-2.4,3.7Z"/>
        <path class="cls-2" d="M168.7,157.2c-.3,0-.7.2-1,.2.4,0,.7,0,1-.2Z"/>
        <path class="cls-2" d="M150.9,124.3h-8.4c-.5,0-1.1.1-1.5.3.5-.2,1-.3,1.5-.3h8.4Z"/>
        <path class="cls-2" d="M170,156.6c.3-.2.5-.5.8-.7-.2.3-.5.5-.8.7Z"/>
        <path class="cls-2" d="M138.6,153.4v-8.4h0v8.4c0,2.2,1.8,4,4,4h25.2s-25.2,0-25.2,0c-2.2,0-4-1.8-4-4Z"/>
        <path class="cls-2" d="M96.8,136.7h33.1v-8.4c0-2.2-1.8-4-4-4h-25.2c-.8,0-1.6.3-2.2.7-.2.1-.4.3-.6.5-.7.7-1.2,1.7-1.2,2.8v8.4Z"/>
        <path class="cls-2" d="M129.9,153.4v-8.4h-33.1v8.4c0,.2,0,.4,0,.6,0,.2,0,.4.2.6,0,0,0,.2,0,.3.6,1.4,2,2.4,3.7,2.4h25.2c.5,0,1.1-.1,1.5-.3.2-.1.5-.2.7-.4,1.1-.7,1.8-1.9,1.8-3.3Z"/>
        <path class="cls-2" d="M129.9,153.4c0,1.4-.7,2.6-1.8,3.3,1.1-.7,1.8-1.9,1.8-3.3v-8.4h0v8.4Z"/>
        <path class="cls-2" d="M125.9,124.3h-25.2c-.8,0-1.6.3-2.2.7.6-.4,1.4-.7,2.2-.7h25.2c2.2,0,4,1.8,4,4v8.4h0v-8.4c0-2.2-1.8-4-4-4Z"/>
        <path class="cls-2" d="M96.8,128.2c0-1.1.4-2.1,1.2-2.8-.7.7-1.2,1.7-1.2,2.8v8.4h0v-8.4Z"/>
        <path class="cls-2" d="M117.5,157.4h8.4c.5,0,1.1-.1,1.5-.3-.5.2-1,.3-1.5.3h-8.4Z"/>
        <path class="cls-2" d="M96.8,145h0v8.4c0,.2,0,.4,0,.6,0-.2,0-.4,0-.6v-8.4Z"/>
        <path class="cls-2" d="M97.1,155c0,0,0-.2,0-.3,0,0,0,.2,0,.3Z"/>
        <path class="cls-2" d="M138.6,94.9h7.7c7.2,0,13,5.8,13,13v7.7h8.5c2.2,0,4-1.8,4-4v-25.2c0-2.2-1.8-4-4-4h-25.2c-.7,0-1.3.2-1.9.5-.9.5-1.6,1.3-1.9,2.3-.1.4-.2.8-.2,1.2v8.4Z"/>
        <path class="cls-2" d="M146.3,103.2h-7.7v8.4c0,2.2,1.8,4,4,4h8.4v-7.7c0-2.6-2.1-4.7-4.7-4.7Z"/>
        <path class="cls-2" d="M171.7,86.5v14.4s0-14.4,0-14.4c0-2.2-1.8-4-4-4h0c2.2,0,4,1.8,4,4Z"/>
        <path class="cls-2" d="M140.7,83c-.9.5-1.6,1.3-1.9,2.3.3-1,1-1.8,1.9-2.3Z"/>
        <path class="cls-2" d="M96.8,103.2v8.4c0,2.2,1.8,4,4,4h25.2c.6,0,1.2-.2,1.7-.4,1.3-.6,2.2-2,2.2-3.6v-8.4h-33.1Z"/>
        <path class="cls-2" d="M96.8,86.5v8.4h33.1v-8.4c0-1.9-1.4-3.5-3.2-3.9-.3,0-.5,0-.8,0h-8.4s-16.8,0-16.8,0c-.8,0-1.5.2-2.2.6-1.1.7-1.8,1.9-1.8,3.3Z"/>
        <path class="cls-2" d="M100.8,115.6h0c-2.2,0-4-1.8-4-4v-8.4h0v8.4c0,2.2,1.8,4,4,4Z"/>
        <path class="cls-2" d="M117.5,82.5h-16.8c-.8,0-1.5.2-2.2.6.6-.4,1.4-.6,2.2-.6h16.8Z"/>
        <path class="cls-2" d="M127.7,115.2c1.3-.6,2.2-2,2.2-3.6h0c0,1.6-.9,2.9-2.2,3.6Z"/>
        <path class="cls-2" d="M88.1,111.6v-8.4h-7.7c-7.2,0-13-5.8-13-13v-7.7h-8.4c-.7,0-1.4.2-2,.5-.3.2-.6.4-.8.6-.2.2-.3.4-.5.6-.3.4-.5.9-.6,1.4,0,.3,0,.5,0,.8v25.2c0,2.2,1.8,4,4,4h25.2c.4,0,.8,0,1.2-.2.4-.1.8-.3,1.2-.6,1-.7,1.6-1.9,1.6-3.2Z"/>
        <path class="cls-2" d="M84.2,82.5h-8.5v7.7c0,2.6,2.1,4.7,4.7,4.7h7.7v-8.4c0-.2,0-.5,0-.7,0-.1,0-.2,0-.3,0-.3-.2-.6-.3-.8-.7-1.3-2-2.1-3.5-2.1Z"/>
        <path class="cls-2" d="M87.7,84.6c.1.3.2.5.3.8,0-.3-.2-.6-.3-.8Z"/>
        <path class="cls-2" d="M59,115.6c-2.2,0-4-1.8-4-4v-25.2c0-.3,0-.5,0-.8,0,.3,0,.5,0,.8v25.2c0,2.2,1.8,4,4,4h25.2c.4,0,.8,0,1.2-.2-.4.1-.7.2-1.2.2h-25.2Z"/>
        <path class="cls-2" d="M57,83.1c.6-.3,1.3-.5,2-.5h8.4s-8.4,0-8.4,0c-.7,0-1.4.2-2,.5Z"/>
        <path class="cls-2" d="M55.1,85.7c.1-.5.3-1,.6-1.4-.3.4-.5.9-.6,1.4Z"/>
        <path class="cls-2" d="M88.1,111.6c0,1.3-.6,2.5-1.6,3.2,1-.7,1.6-1.9,1.6-3.2v-8.4h0v8.4Z"/>
        <path class="cls-2" d="M88.1,94.9h0v-8.4c0-.2,0-.5,0-.7,0,.2,0,.5,0,.7v8.4Z"/>
        <path class="cls-2" d="M96.8,44.7v8.4h33.1v-8.4c0-1.6-1-3.1-2.4-3.7-.5-.2-1-.3-1.5-.3h-25.2s0,0,0,0c-.3,0-.5,0-.8,0-1.8.4-3.2,2-3.2,3.9Z"/>
        <path class="cls-2" d="M129.9,61.4h-33.1v8.4c0,2.2,1.8,4,4,4h16.8s8.4,0,8.4,0c.8,0,1.6-.3,2.2-.7.3-.2.6-.5.8-.8.6-.7.9-1.6.9-2.5v-8.4Z"/>
        <path class="cls-2" d="M117.5,73.8h8.4c.8,0,1.6-.3,2.2-.7-.6.4-1.4.7-2.2.7h-8.4Z"/>
        <path class="cls-2" d="M128.2,73.2c.3-.2.6-.5.8-.8-.2.3-.5.5-.8.8Z"/>
        <path class="cls-2" d="M127.5,41c-.5-.2-1-.3-1.5-.3h-25.2s25.2,0,25.2,0c.5,0,1.1.1,1.5.3Z"/>
        <path class="cls-2" d="M54.8,128.2v8.4h33.1v-8.4c0-2.2-1.8-4-4-4h-25.2c-.4,0-.8,0-1.2.2-1.6.5-2.8,2-2.8,3.8Z"/>
        <path class="cls-2" d="M87.9,153.4v-8.4h-33.1v8.4c0,.8.2,1.5.6,2.1.2.3.3.5.6.7.5.5,1.2.9,2,1.1.3,0,.5,0,.8,0h25.2c.5,0,1.1-.1,1.5-.3.3-.1.7-.4.9-.6.9-.7,1.5-1.8,1.5-3.1Z"/>
        <path class="cls-2" d="M87.9,153.4c0,1.2-.6,2.3-1.5,3.1.9-.7,1.5-1.8,1.5-3.1v-8.4h0v8.4Z"/>
        <path class="cls-2" d="M54.8,128.2c0-1.8,1.2-3.3,2.8-3.8-1.6.5-2.8,2-2.8,3.8v8.4h0v-8.4Z"/>
        <path class="cls-2" d="M54.8,145h0v8.4c0,.8.2,1.5.6,2.1-.4-.6-.6-1.3-.6-2.1v-8.4Z"/>
        <path class="cls-2" d="M83.9,124.3c2.2,0,4,1.8,4,4v8.4h0v-8.4c0-2.2-1.8-4-4-4Z"/>
      </g>
      <g>
        <path class="cls-1" d="M213.9,119.5c-2.7-1.1-4.8-2.6-6.2-4.5-1.4-1.9-2.1-3.9-2.2-6.1,0-.3.1-.6.4-.9.3-.3.6-.4,1-.4h5.8c.5,0,.8.1,1.1.3.3.2.6.5.8.9.4,1.4,1.4,2.6,2.9,3.6,1.5,1,3.6,1.5,6.2,1.5s5.2-.5,6.7-1.5c1.5-1,2.3-2.4,2.3-4.1s-.4-2.1-1.1-2.9-1.9-1.4-3.5-2c-1.5-.6-3.8-1.3-6.9-2.1-5-1.2-8.7-2.8-11-4.7-2.3-1.9-3.5-4.7-3.5-8.4s.7-4.6,2-6.6c1.4-1.9,3.3-3.4,5.8-4.5,2.5-1.1,5.5-1.7,8.8-1.7s6.6.6,9.1,1.8c2.6,1.2,4.5,2.8,5.8,4.6,1.3,1.8,2,3.7,2.1,5.5,0,.3-.1.6-.4.9-.3.3-.6.4-1,.4h-6c-.9,0-1.6-.4-1.9-1.1-.2-1.4-1-2.5-2.5-3.4-1.4-.9-3.2-1.4-5.3-1.4s-4.2.4-5.5,1.3c-1.3.9-2,2.2-2,3.9s.3,2.1,1,2.9c.7.8,1.7,1.4,3.2,2,1.4.6,3.5,1.2,6.3,1.9,3.8.8,6.8,1.8,9,2.9,2.2,1.1,3.9,2.4,4.9,4,1.1,1.6,1.6,3.7,1.6,6.2s-.8,5.1-2.3,7.1c-1.5,2-3.6,3.5-6.4,4.6-2.7,1.1-5.9,1.6-9.5,1.6s-7.1-.6-9.8-1.7Z"/>
        <path class="cls-1" d="M243.4,120.2c-.3-.3-.4-.6-.4-1v-.6c.1,0,15.4-41,15.4-41,.4-1.1,1.2-1.6,2.3-1.6h7c1.1,0,1.9.5,2.3,1.6l15.2,41v.6c.1.4,0,.7-.3,1-.3.3-.6.4-.9.4h-5.7c-.9,0-1.5-.4-1.8-1.2l-2.8-7.2c-.1-.3-.4-.4-.6-.4h-17.8c-.3,0-.5.2-.6.4l-2.8,7.2c-.3.8-1,1.2-1.8,1.2h-5.7c-.4,0-.7-.1-1-.4ZM257.9,104.3h12.4c.5,0,.8-.5.7-.9l-6.2-16.9c-.2-.6-1.1-.6-1.3,0l-6.2,16.9c-.2.5.2.9.7.9Z"/>
        <path class="cls-1" d="M290.3,120.1c-.3-.3-.4-.7-.4-1.1v-41.3c0-.5.1-.8.4-1.1.3-.3.6-.4,1.1-.4h16.5c5.2,0,9.3,1.2,12.2,3.6,2.9,2.4,4.4,5.8,4.4,10.3s-.7,5.7-2.2,7.8c-1.3,1.9-3.2,3.3-5.5,4.3-.4.2-.6.6-.4,1l8.8,15.5c.1.3.2.5.2.7,0,.4-.1.7-.4,1-.3.3-.6.4-.9.4h-5.8c-.7,0-1.2-.2-1.6-.5s-.7-.7-1-1.2l-7.9-14.7c-.1-.2-.4-.4-.6-.4h-7.6c-.4,0-.7.3-.7.7v14.5c0,.4-.1.8-.4,1.1-.3.3-.7.4-1.1.4h-5.8c-.4,0-.8-.1-1.1-.4ZM307.6,96.5c2.5,0,4.4-.6,5.7-1.7,1.3-1.1,1.9-2.8,1.9-4.9s-.6-3.8-1.9-5c-1.3-1.2-3.2-1.7-5.7-1.7h-8.1c-.4,0-.7.3-.7.7v12c0,.4.3.7.7.7h8.1Z"/>
        <path class="cls-1" d="M331.8,120.1c-.3-.3-.4-.7-.4-1.1v-41.4c0-.5.1-.8.4-1.1.3-.3.7-.4,1.1-.4h6.1c.5,0,.8.1,1.1.4.3.3.4.6.4,1.1v41.4c0,.4-.1.8-.4,1.1-.3.3-.6.4-1.1.4h-6.1c-.4,0-.8-.1-1.1-.4Z"/>
        <path class="cls-1" d="M349.6,120.1c-.3-.3-.4-.7-.4-1.1v-41.3c0-.5.1-.8.4-1.1.3-.3.6-.4,1.1-.4h27.6c.5,0,.8.1,1.1.4.3.3.4.7.4,1.1v4.6c0,.4-.1.8-.4,1.1-.3.3-.7.4-1.1.4h-19.6c-.4,0-.7.3-.7.7v10.6c0,.4.3.7.7.7h18.4c.5,0,.8.1,1.1.4.3.3.4.7.4,1.1v4.6c0,.4-.1.8-.4,1.1-.3.3-.7.4-1.1.4h-18.4c-.4,0-.7.3-.7.7v15c0,.4-.1.8-.4,1.1-.3.3-.7.4-1.1.4h-5.7c-.4,0-.8-.1-1.1-.4Z"/>
        <g>
          <path class="cls-1" d="M400.5,119.8c-.3-.3-.4-.7-.4-1.1v-41.3c0-.5.1-.8.4-1.1.3-.3.6-.4,1.1-.4h28c.5,0,.8.1,1.1.4.3.3.4.7.4,1.1v4.3c0,.5-.1.8-.4,1.1-.3.3-.7.4-1.1.4h-20.1c-.4,0-.7.3-.7.7v9.7c0,.4.3.7.7.7h18.7c.5,0,.8.1,1.1.4.3.3.4.7.4,1.1v4c0,.5-.1.8-.4,1.1s-.7.4-1.1.4h-18.7c-.4,0-.7.3-.7.7v10.1c0,.4.3.7.7.7h20.6c.5,0,.8.1,1.1.4.3.3.4.6.4,1.1v4.3c0,.5-.1.8-.4,1.1-.3.3-.7.4-1.1.4h-28.5c-.4,0-.8-.1-1.1-.4Z"/>
          <path class="cls-1" d="M435.2,119.9c-.3-.3-.4-.6-.4-1s.1-.7.4-1.1l10.6-14.1c.2-.2.2-.6,0-.8l-9.7-13.2c-.3-.3-.4-.7-.4-1.1s.1-.7.4-1c.3-.3.6-.4,1-.4h5.6c.5,0,.8,0,1,.3.2.2.5.5.7.8l6.6,8.7c.3.4.8.4,1.1,0l6.5-8.7s0,0,0,0c0,0,.2-.3.5-.6.3-.3.7-.5,1.3-.5h5.4c.4,0,.7.1,1,.4.3.3.4.6.4.9s-.1.8-.4,1.1l-9.9,13.2c-.2.2-.2.6,0,.8l10.6,14c.3.3.4.7.4,1.1s-.1.7-.4,1-.6.4-1,.4h-5.8c-.7,0-1.2-.3-1.7-1l-7.1-9.3c-.3-.4-.8-.4-1.1,0l-7.1,9.3c-.5.7-1,1-1.7,1h-5.7c-.4,0-.7-.1-1-.4Z"/>
          <path class="cls-1" d="M472.7,131.9c-.3-.3-.4-.6-.4-1.1v-42c0-.5.1-.8.4-1.1.3-.3.7-.4,1.1-.4h5.1c.5,0,.8.1,1.1.4.3.3.4.7.4,1.1v2.5c2.2-3.1,5.6-4.7,10.1-4.7s7.6,1.3,9.8,4c2.3,2.7,3.5,6.3,3.7,10.8,0,.5,0,1.3,0,2.3s0,1.8,0,2.3c-.1,4.4-1.3,8-3.7,10.8s-5.6,4.1-9.9,4.1-6.4-1.1-8.5-3.2c-.4-.4-1.2-.1-1.2.5v12.6c0,.5-.1.8-.4,1.1-.3.3-.6.4-1.1.4h-5.5c-.4,0-.8-.1-1.1-.4ZM495.4,105.7c0-.4,0-1.1,0-1.9s0-1.5,0-1.9c-.3-5.6-2.7-8.4-7.2-8.4s-4.2.8-5.4,2.4c-1.2,1.6-1.8,3.5-1.9,5.7,0,.5,0,1.3,0,2.4s0,1.9,0,2.5c0,2.1.7,3.9,2,5.4,1.2,1.5,3,2.2,5.3,2.2,4.5,0,6.9-2.8,7.2-8.4Z"/>
          <path class="cls-1" d="M509.1,119.8c-.3-.3-.4-.7-.4-1.1v-42c0-.5.1-.8.4-1.1.3-.3.7-.4,1.1-.4h5.3c.5,0,.8.1,1.1.4.3.3.4.6.4,1.1v42c0,.4-.1.8-.4,1.1-.3.3-.6.4-1.1.4h-5.3c-.4,0-.8-.1-1.1-.4Z"/>
          <path class="cls-1" d="M526.1,117.1c-2.7-2.5-4.2-6.1-4.4-10.5v-2.8c0,0,0-2.8,0-2.8.2-4.4,1.7-7.9,4.4-10.5,2.8-2.6,6.6-3.8,11.5-3.8s8.7,1.3,11.4,3.8c2.8,2.6,4.2,6.1,4.4,10.5,0,.5,0,1.4,0,2.8s0,2.3,0,2.8c-.2,4.5-1.7,8-4.4,10.5-2.7,2.5-6.5,3.8-11.5,3.8s-8.8-1.3-11.6-3.8ZM542.8,112.4c1.2-1.4,1.9-3.5,1.9-6.2,0-.4,0-1.2,0-2.5s0-2.1,0-2.5c0-2.7-.7-4.8-2-6.2-1.2-1.4-2.9-2.1-5.1-2.1s-4,.7-5.2,2.1c-1.2,1.4-1.9,3.5-2,6.2v2.5c0,0,0,2.5,0,2.5,0,2.7.7,4.8,2,6.2,1.2,1.4,3,2.1,5.2,2.1s4-.7,5.2-2.1Z"/>
          <path class="cls-1" d="M558.5,119.8c-.3-.3-.4-.7-.4-1.1v-29.9c0-.5.1-.8.4-1.1.3-.3.7-.4,1.1-.4h5.2c.5,0,.8.1,1.1.4.3.3.4.7.4,1.1v.8c0,.6.7.9,1.2.5,2-1.9,4.7-2.9,8-2.9h2.7c.5,0,.8.1,1.1.4.3.3.4.6.4,1.1v4.6c0,.4-.1.8-.4,1.1-.3.3-.6.4-1.1.4h-5c-2,0-3.6.6-4.7,1.7-1.1,1.1-1.7,2.7-1.7,4.7v17.4c0,.4-.1.8-.4,1.1-.3.3-.7.4-1.1.4h-5.7c-.4,0-.8-.1-1.1-.4Z"/>
          <path class="cls-1" d="M586,116.9c-2.8-2.7-4.2-6.6-4.4-11.6v-1.6c0-5.3,1.3-9.5,4.1-12.5,2.8-3,6.6-4.6,11.5-4.6s8.9,1.5,11.7,4.6c2.7,3,4.1,7.1,4.1,12.2v1.3c0,.4-.1.8-.4,1.1-.3.3-.7.4-1.1.4h-21.1v.5c0,2.4.7,4.3,1.9,5.9,1.2,1.5,2.9,2.3,5,2.3s4.4-1,5.9-2.9c.4-.5.7-.8.9-.9.2-.1.6-.2,1.1-.2h5.6c.4,0,.7.1,1,.3.3.2.4.5.4.9,0,1-.6,2.2-1.8,3.6-1.2,1.4-2.9,2.6-5.2,3.6-2.2,1-4.8,1.5-7.8,1.5-4.7,0-8.5-1.4-11.3-4.1ZM604.2,100.9h0c0-2.6-.6-4.6-1.9-6.1-1.2-1.5-3-2.3-5.1-2.3s-3.9.8-5.1,2.3c-1.2,1.5-1.8,3.5-1.8,6h0c0,.1,13.9.1,13.9.1Z"/>
          <path class="cls-1" d="M617.6,119.8c-.3-.3-.4-.7-.4-1.1v-29.9c0-.5.1-.8.4-1.1.3-.3.7-.4,1.1-.4h5.2c.5,0,.8.1,1.1.4.3.3.4.7.4,1.1v.8c0,.6.7.9,1.2.5,2-1.9,4.7-2.9,8-2.9h2.7c.5,0,.8.1,1.1.4.3.3.4.6.4,1.1v4.6c0,.4-.1.8-.4,1.1-.3.3-.6.4-1.1.4h-5c-2,0-3.6.6-4.7,1.7-1.1,1.1-1.7,2.7-1.7,4.7v17.4c0,.4-.1.8-.4,1.1-.3.3-.7.4-1.1.4h-5.7c-.4,0-.8-.1-1.1-.4Z"/>
        </g>
      </g>
    </g>
  </g>
</svg>