<?xml version="1.0" encoding="UTF-8"?>
<svg xmlns="http://www.w3.org/2000/svg" version="1.1" viewBox="0 0 648 648">
  <defs>
    <style>
      .cls-1 {
        fill: #ad2b43;
      }
    </style>
  </defs>
  <!-- Generator: Adobe Illustrator 28.6.0, SVG Export Plug-In . SVG Version: 1.2.0 Build 709)  -->
  <g>
    <g id="Layer_2">
      <g>
        <path class="cls-1" d="M260.1,275.3c0-5.4,2.8-10.2,7-12.9-4.2,2.8-7,7.5-7,12.9v32.9h0v-32.9Z"/>
        <path class="cls-1" d="M225.8,271.3c.1.4.2.8.3,1.2,0-.4-.2-.8-.3-1.2Z"/>
        <path class="cls-1" d="M220.1,385.6c-1.4,1-3,1.8-4.6,2.3,1.7-.5,3.3-1.3,4.6-2.3Z"/>
        <path class="cls-1" d="M275.6,388.7h97.9c2.5,0,4.7-.6,6.8-1.6-2.1,1-4.3,1.6-6.8,1.6h-97.9Z"/>
        <path class="cls-1" d="M389,275.3v32.9h0v-32.9c0-7.5-5.3-13.7-12.3-15.1,7,1.4,12.3,7.7,12.3,15.1Z"/>
        <path class="cls-1" d="M376.6,260.2c-1-.2-2-.3-3.1-.3h-32.6s32.6,0,32.6,0c1.1,0,2.1.1,3.1.3Z"/>
        <path class="cls-1" d="M275.6,97.3h0c-1.1,0-2.1.1-3.1.3,1-.2,2-.3,3.1-.3h0Z"/>
        <path class="cls-1" d="M226.4,210.2c0,8.5-6.9,15.5-15.5,15.5h0,0c8.5,0,15.5-6.9,15.5-15.5v-32.3h0v32.3Z"/>
        <path class="cls-1" d="M260.1,112.8c0-7.5,5.3-13.7,12.3-15.1-7,1.4-12.3,7.7-12.3,15.1v32.9h0v-32.9Z"/>
        <path class="cls-1" d="M221.9,101.3c-2.8-2.8-6.7-4.5-10.9-4.5h-65.3s65.3,0,65.3,0c4.3,0,8.1,1.7,10.9,4.5Z"/>
        <path class="cls-1" d="M102.1,264.4c.9-.9,2-1.7,3.2-2.4-1.2.7-2.3,1.4-3.2,2.4Z"/>
        <path class="cls-1" d="M422.6,437.8c0-6.4,3.9-11.9,9.4-14.2-5.5,2.3-9.4,7.8-9.4,14.2v32.9h0v-32.9Z"/>
        <path class="cls-1" d="M209.9,422.4h-97.9c-1.7,0-3.2.3-4.7.8,1.5-.5,3.1-.8,4.7-.8h97.9Z"/>
        <path class="cls-1" d="M112,551.2c-1.1,0-2.1-.1-3.1-.3,1,.2,2,.3,3.1.3h97.9c2.1,0,4.2-.4,6-1.2-1.8.8-3.9,1.2-6,1.2h-97.9Z"/>
        <path class="cls-1" d="M261,540.7c-.3-.8-.5-1.6-.6-2.4.1.8.4,1.6.6,2.4Z"/>
        <path class="cls-1" d="M108.9,550.9c-3-.6-5.7-2.1-7.8-4.2,2.1,2.1,4.8,3.6,7.8,4.2Z"/>
        <path class="cls-1" d="M219.6,547.7c-1.1.9-2.3,1.7-3.7,2.3,1.3-.6,2.5-1.4,3.7-2.3Z"/>
        <path class="cls-1" d="M101,546.7c-.8-.8-1.6-1.8-2.2-2.8.6,1,1.3,2,2.2,2.8Z"/>
        <path class="cls-1" d="M264.6,426.9c.7-.7,1.5-1.3,2.3-1.9-.8.6-1.6,1.2-2.3,1.9Z"/>
        <path class="cls-1" d="M422.6,275.3c0-1.7.3-3.2.8-4.7-.5,1.5-.8,3.1-.8,4.7v32.9h0v-32.9Z"/>
        <path class="cls-1" d="M536,259.8h-97.9c-2.6,0-5.1.7-7.2,1.9,2.2-1.2,4.6-1.9,7.2-1.9h97.9Z"/>
        <path class="cls-1" d="M260.1,210.7v-32.9h0v32.9c0,8.5,6.9,15.5,15.5,15.5h65.3s-65.3,0-65.3,0c-8.5,0-15.5-6.9-15.5-15.5Z"/>
        <path class="cls-1" d="M545.1,548.2c-1.5,1.1-3.2,1.9-5,2.4,1.8-.5,3.5-1.3,5-2.4Z"/>
        <path class="cls-1" d="M261.3,541.8c2.3,5.5,7.8,9.4,14.2,9.4h65.3s-65.3,0-65.3,0c-6.4,0-11.9-3.9-14.2-9.4Z"/>
        <path class="cls-1" d="M211,259.8c5.9,0,11,3.4,13.6,8.2-2.6-4.9-7.7-8.2-13.6-8.2h-32.9s32.9,0,32.9,0Z"/>
        <path class="cls-1" d="M379.5,98.5c5.5,2.3,9.4,7.8,9.4,14.2v32.9h0v-32.9c0-6.4-3.9-11.9-9.4-14.2Z"/>
        <path class="cls-1" d="M422.6,210.7c0,1.7.3,3.4.9,4.9-.5-1.6-.9-3.2-.9-4.9h0Z"/>
        <path class="cls-1" d="M432.1,98.5c-3.1,1.3-5.6,3.6-7.3,6.5,1.7-2.9,4.2-5.2,7.3-6.5Z"/>
        <path class="cls-1" d="M422.9,110c0-.3.2-.7.2-1,0,.3-.2.7-.2,1Z"/>
        <path class="cls-1" d="M423.9,216.7c2.3,5.5,7.8,9.4,14.2,9.4h65.3s-65.3,0-65.3,0c-6.4,0-11.9-3.9-14.2-9.4Z"/>
        <path class="cls-1" d="M389,210.7c0,3.8-1.4,7.2-3.7,9.9,2.3-2.7,3.7-6.1,3.7-9.9v-32.9h0v32.9Z"/>
        <path class="cls-1" d="M551.5,210.7v-32.9h-128.8v32.9c0,1.7.3,3.4.9,4.9.1.4.2.7.3,1.1,2.3,5.5,7.8,9.4,14.2,9.4h65.3s32.6,0,32.6,0c8.5,0,15.5-6.9,15.5-15.5Z"/>
        <path class="cls-1" d="M422.6,145.6h128.8v-32.9c0-8.5-6.9-15.5-15.5-15.5h-97.9c-2.1,0-4.2.4-6,1.2-3.1,1.3-5.6,3.6-7.3,6.5-.7,1.2-1.3,2.5-1.6,3.9,0,.3-.2.7-.2,1-.2.9-.3,1.8-.3,2.8v32.9Z"/>
        <path class="cls-1" d="M423.9,216.7c-.1-.4-.2-.7-.3-1.1.1.4.2.7.3,1.1Z"/>
        <path class="cls-1" d="M422.6,112.8c0-1,.1-1.9.3-2.8-.2.9-.3,1.8-.3,2.8v32.9h0v-32.9Z"/>
        <path class="cls-1" d="M423.2,109c.4-1.4.9-2.7,1.6-3.9-.7,1.2-1.3,2.5-1.6,3.9Z"/>
        <path class="cls-1" d="M113,225.6h32.9v-29.4c0-27.9,22.7-50.6,50.6-50.6h29.9v-33.4c0-4.3-1.7-8.1-4.5-10.9-2.8-2.8-6.7-4.5-10.9-4.5h-65.3s-32.6,0-32.6,0c-5.3,0-10,2.7-12.8,6.8-.7,1-1.2,2.1-1.6,3.3-.6,1.7-1,3.4-1,5.3v97.9c0,2.1.4,4.2,1.2,6,2.3,5.5,7.8,9.4,14.2,9.4Z"/>
        <path class="cls-1" d="M226.4,210.2v-32.3h-29.9c-10.1,0-18.4,8.2-18.4,18.4v29.4h32.9c8.5,0,15.5-6.9,15.5-15.5Z"/>
        <path class="cls-1" d="M98.6,106.9c.4-1.2.9-2.3,1.6-3.3-.7,1-1.2,2.1-1.6,3.3Z"/>
        <path class="cls-1" d="M221.9,101.3c2.8,2.8,4.5,6.7,4.5,10.9v33.4h0v-33.4c0-4.3-1.7-8.1-4.5-10.9Z"/>
        <path class="cls-1" d="M113,96.8h32.6s-32.6,0-32.6,0c-5.3,0-10,2.7-12.8,6.8,2.8-4.1,7.5-6.8,12.8-6.8Z"/>
        <path class="cls-1" d="M551.5,437.8c0-8.5-6.9-15.5-15.5-15.5h-32.9v29.9c0,27.9-22.7,50.6-50.6,50.6h-29.9v32.9c0,8.5,6.9,15.5,15.5,15.5h97.9c1.4,0,2.7-.2,4-.6,1.8-.5,3.5-1.3,5-2.4,1.1-.8,2.1-1.8,2.9-2.8,2.2-2.7,3.5-6,3.5-9.7v-97.9Z"/>
        <path class="cls-1" d="M422.6,437.8v32.9h29.9c10.1,0,18.4-8.2,18.4-18.4v-29.9h-32.8c-2.1,0-4.2.4-6,1.2-5.5,2.3-9.4,7.8-9.4,14.2Z"/>
        <path class="cls-1" d="M540,550.6c-1.3.3-2.6.6-4,.6,1.4,0,2.7-.2,4-.6Z"/>
        <path class="cls-1" d="M470.7,422.4h-32.6c-2.1,0-4.2.4-6,1.2,1.9-.8,3.9-1.2,6-1.2h32.6Z"/>
        <path class="cls-1" d="M545.1,548.2c1.1-.8,2.1-1.8,2.9-2.8-.9,1.1-1.8,2-2.9,2.8Z"/>
        <path class="cls-1" d="M422.6,535.7v-32.9h0v32.9c0,8.5,6.9,15.5,15.5,15.5h97.9s-97.9,0-97.9,0c-8.5,0-15.5-6.9-15.5-15.5Z"/>
        <path class="cls-1" d="M260.1,470.7h128.8v-32.9c0-8.5-6.9-15.5-15.5-15.5h-97.9c-3.2,0-6.2,1-8.6,2.6-.8.6-1.6,1.2-2.3,1.9-2.8,2.8-4.5,6.7-4.5,10.9v32.9Z"/>
        <path class="cls-1" d="M389,535.7v-32.9h-128.8v32.9c0,.9.1,1.7.3,2.5.1.8.4,1.6.6,2.4.1.4.2.7.3,1.1,2.3,5.5,7.8,9.4,14.2,9.4h97.9c2.1,0,4.2-.4,6-1.2.9-.4,1.8-.9,2.6-1.4,4.1-2.8,6.8-7.5,6.8-12.8Z"/>
        <path class="cls-1" d="M389,535.7c0,5.3-2.7,10-6.8,12.8,4.1-2.8,6.8-7.5,6.8-12.8v-32.9h0v32.9Z"/>
        <path class="cls-1" d="M373.5,422.4h-97.9c-3.2,0-6.2,1-8.6,2.6,2.5-1.7,5.4-2.6,8.6-2.6h97.9c8.5,0,15.5,6.9,15.5,15.5v32.9h0v-32.9c0-8.5-6.9-15.5-15.5-15.5Z"/>
        <path class="cls-1" d="M260.1,437.8c0-4.3,1.7-8.1,4.5-10.9-2.8,2.8-4.5,6.7-4.5,10.9v32.9h0v-32.9Z"/>
        <path class="cls-1" d="M340.9,551.2h32.6c2.1,0,4.2-.4,6-1.2-1.8.8-3.9,1.2-6,1.2h-32.6Z"/>
        <path class="cls-1" d="M260.1,502.9h0v32.9c0,.9.1,1.7.3,2.5-.1-.8-.3-1.6-.3-2.5v-32.9Z"/>
        <path class="cls-1" d="M261.3,541.8c-.1-.4-.2-.7-.3-1.1.1.4.2.7.3,1.1Z"/>
        <path class="cls-1" d="M422.6,308.2h29.9c27.9,0,50.6,22.7,50.6,50.6v29.9h32.9c8.5,0,15.5-6.9,15.5-15.5v-97.9c0-8.5-6.9-15.5-15.5-15.5h-97.9c-2.6,0-5.1.7-7.2,1.9-3.5,1.9-6.2,5-7.4,8.9-.5,1.5-.8,3.1-.8,4.7v32.9Z"/>
        <path class="cls-1" d="M452.6,340.4h-29.9v32.9c0,8.5,6.9,15.5,15.5,15.5h32.8v-29.9c0-10.1-8.2-18.4-18.4-18.4Z"/>
        <path class="cls-1" d="M551.5,275.3v56s0-56,0-56c0-8.5-6.9-15.5-15.5-15.5h0c8.5,0,15.5,6.9,15.5,15.5Z"/>
        <path class="cls-1" d="M430.9,261.7c-3.5,1.9-6.2,5-7.4,8.9,1.2-3.8,3.9-7,7.4-8.9Z"/>
        <path class="cls-1" d="M260.1,340.4v32.9c0,8.5,6.9,15.5,15.5,15.5h97.9c2.5,0,4.7-.6,6.8-1.6,5.1-2.5,8.7-7.7,8.7-13.8v-32.9h-128.8Z"/>
        <path class="cls-1" d="M260.1,275.3v32.9h128.8v-32.9c0-7.5-5.3-13.7-12.3-15.1-1-.2-2-.3-3.1-.3h-32.6s-65.3,0-65.3,0c-3.1,0-6,.9-8.4,2.5-4.2,2.8-7,7.5-7,12.9Z"/>
        <path class="cls-1" d="M275.6,388.7h0c-8.5,0-15.5-6.9-15.5-15.5v-32.9h0v32.9c0,8.5,6.9,15.5,15.5,15.5Z"/>
        <path class="cls-1" d="M340.9,259.8h-65.3c-3.1,0-6,.9-8.4,2.5,2.4-1.6,5.3-2.5,8.4-2.5h65.3Z"/>
        <path class="cls-1" d="M380.3,387c5.1-2.5,8.7-7.7,8.7-13.8h0c0,6.1-3.6,11.3-8.7,13.8Z"/>
        <path class="cls-1" d="M226.4,373.2v-32.9h-30c-27.9,0-50.6-22.7-50.6-50.6v-29.9h-32.8c-2.8,0-5.4.8-7.7,2.1-1.2.7-2.3,1.4-3.2,2.4s-1.3,1.5-1.9,2.3c-1.1,1.6-1.9,3.5-2.3,5.5-.2,1-.3,2-.3,3.1v97.9c0,8.5,6.9,15.5,15.5,15.5h97.9c1.6,0,3.1-.3,4.5-.7,1.7-.5,3.3-1.3,4.6-2.3,3.8-2.8,6.3-7.3,6.3-12.4Z"/>
        <path class="cls-1" d="M211,259.8h-32.9v29.9c0,10.1,8.2,18.4,18.4,18.4h30v-32.9c0-1-.1-1.9-.3-2.8,0-.4-.2-.8-.3-1.2-.3-1.1-.7-2.2-1.3-3.2-2.6-4.9-7.7-8.2-13.6-8.2Z"/>
        <path class="cls-1" d="M224.6,268.1c.5,1,1,2.1,1.3,3.2-.3-1.1-.7-2.2-1.3-3.2Z"/>
        <path class="cls-1" d="M113,388.7c-8.5,0-15.5-6.9-15.5-15.5v-97.9c0-1.1.1-2.1.3-3.1-.2,1-.3,2-.3,3.1v97.9c0,8.5,6.9,15.5,15.5,15.5h97.9c1.6,0,3.1-.3,4.5-.7-1.4.4-2.9.7-4.5.7h-97.9Z"/>
        <path class="cls-1" d="M105.3,262c2.3-1.3,4.9-2.1,7.7-2.1h32.8s-32.8,0-32.8,0c-2.8,0-5.4.8-7.7,2.1Z"/>
        <path class="cls-1" d="M97.9,272.2c.4-2,1.2-3.9,2.3-5.5-1.1,1.6-1.9,3.5-2.3,5.5Z"/>
        <path class="cls-1" d="M226.4,373.2c0,5.1-2.5,9.6-6.3,12.4,3.8-2.8,6.3-7.3,6.3-12.4v-32.9h0v32.9Z"/>
        <path class="cls-1" d="M226.4,308.2h0v-32.9c0-1-.1-1.9-.3-2.8.2.9.3,1.8.3,2.8v32.9Z"/>
        <path class="cls-1" d="M260.1,112.8v32.9h128.8v-32.9c0-6.4-3.9-11.9-9.4-14.2-1.9-.8-3.9-1.2-6-1.2h-97.9s0,0,0,0c-1.1,0-2.1.1-3.1.3-7,1.4-12.3,7.7-12.3,15.1Z"/>
        <path class="cls-1" d="M389,177.8h-128.8v32.9c0,8.5,6.9,15.5,15.5,15.5h65.3s32.6,0,32.6,0c3.2,0,6.2-1,8.6-2.6,1.2-.8,2.2-1.8,3.1-2.9,2.3-2.7,3.7-6.1,3.7-9.9v-32.9Z"/>
        <path class="cls-1" d="M340.9,226.1h32.6c3.2,0,6.2-1,8.6-2.6-2.5,1.7-5.4,2.6-8.6,2.6h-32.6Z"/>
        <path class="cls-1" d="M382.1,223.5c1.2-.8,2.2-1.8,3.1-2.9-.9,1.1-1.9,2.1-3.1,2.9Z"/>
        <path class="cls-1" d="M379.5,98.5c-1.9-.8-3.9-1.2-6-1.2h-97.9s97.9,0,97.9,0c2.1,0,4.2.4,6,1.2Z"/>
        <path class="cls-1" d="M96.5,437.8v32.8h128.8v-32.8c0-8.5-6.9-15.5-15.5-15.5h-97.9c-1.7,0-3.2.3-4.7.8-6.2,2-10.7,7.8-10.7,14.6Z"/>
        <path class="cls-1" d="M225.4,535.8v-32.9H96.5v32.9c0,3,.9,5.7,2.3,8.1.6,1,1.3,2,2.2,2.8,2.1,2.1,4.8,3.6,7.8,4.2,1,.2,2,.3,3.1.3h97.9c2.1,0,4.2-.4,6-1.2,1.3-.6,2.5-1.4,3.7-2.3,3.5-2.8,5.8-7.1,5.8-12Z"/>
        <path class="cls-1" d="M225.4,535.8c0,4.9-2.3,9.1-5.8,12,3.5-2.8,5.8-7.1,5.8-12v-32.9h0v32.9Z"/>
        <path class="cls-1" d="M96.5,437.8c0-6.9,4.5-12.6,10.7-14.6-6.2,2-10.7,7.8-10.7,14.6v32.8h0v-32.8Z"/>
        <path class="cls-1" d="M96.5,502.9h0v32.9c0,3,.9,5.7,2.3,8.1-1.5-2.4-2.3-5.1-2.3-8.1v-32.9Z"/>
        <path class="cls-1" d="M209.9,422.4c8.5,0,15.5,6.9,15.5,15.5v32.8h0v-32.8c0-8.5-6.9-15.5-15.5-15.5Z"/>
      </g>
    </g>
  </g>
</svg>